<svg width="112" height="32" viewBox="0 0 112 32" fill="none" xmlns="http://www.w3.org/2000/svg">
  <path fillRule="evenodd" clipRule="evenodd" d="M16 32C24.8366 32 32 24.8366 32 16C32 7.16344 24.8366 0 16 0C7.16344 0 0 7.16344 0 16C0 24.8366 7.16344 32 16 32ZM12.0001 11C11.4478 11 11.0001 11.4477 11.0001 12V20C11.0001 20.5523 11.4478 21 12.0001 21H20.0001C20.5524 21 21.0001 20.5523 21.0001 20V12C21.0001 11.4477 20.5524 11 20.0001 11H12.0001Z" fill="white"/>
  <path d="M44.2 21.54C41.5 21.54 39.4 19.54 39.4 16.54C39.4 13.54 41.5 11.54 44.2 11.54C46.3 11.54 48 12.84 48.5 14.74H46.5C46.1 13.84 45.2 13.24 44.2 13.24C42.5 13.24 41.3 14.64 41.3 16.54C41.3 18.44 42.5 19.84 44.2 19.84C45.2 19.84 46.1 19.24 46.5 18.34H48.5C48 20.24 46.3 21.54 44.2 21.54Z" fill="white"/>
  <path d="M54.5 21.54C51.8 21.54 49.7 19.54 49.7 16.54C49.7 13.54 51.8 11.54 54.5 11.54C57.2 11.54 59.3 13.54 59.3 16.54C59.3 19.54 57.2 21.54 54.5 21.54ZM54.5 19.84C56.2 19.84 57.4 18.44 57.4 16.54C57.4 14.64 56.2 13.24 54.5 13.24C52.8 13.24 51.6 14.64 51.6 16.54C51.6 18.44 52.8 19.84 54.5 19.84Z" fill="white"/>
  <path d="M61.1 21.34V11.74H63V21.34H61.1Z" fill="white"/>
  <path d="M65.4 21.34V11.74H67.1L72.1 18.34V11.74H74V21.34H72.3L67.3 14.74V21.34H65.4Z" fill="white"/>
  <path d="M76.4 21.34V11.74H81.9C83.7 11.74 84.9 12.84 84.9 14.44C84.9 15.64 84.2 16.54 83.1 16.94C84.4 17.24 85.2 18.24 85.2 19.54C85.2 21.24 83.9 21.34 82.1 21.34H76.4ZM78.3 16.14H81.5C82.4 16.14 83 15.54 83 14.64C83 13.74 82.4 13.24 81.5 13.24H78.3V16.14ZM78.3 19.84H81.8C82.7 19.84 83.3 19.34 83.3 18.44C83.3 17.54 82.7 17.04 81.8 17.04H78.3V19.84Z" fill="white"/>
  <path d="M90.9 21.34L90 19.04H85.8L84.9 21.34H82.9L87 11.74H88.8L92.9 21.34H90.9ZM87.9 13.54L86.4 17.54H89.4L87.9 13.54Z" fill="white"/>
  <path d="M98.8 21.54C96.3 21.54 94.5 20.24 94.3 18.14H96.2C96.4 19.24 97.4 19.94 98.8 19.94C100.2 19.94 101.1 19.24 101.1 18.24C101.1 17.24 100.4 16.84 98.9 16.54L97.7 16.24C95.6 15.74 94.5 14.74 94.5 13.04C94.5 11.14 96.2 9.74 98.6 9.74C101 9.74 102.6 11.04 102.8 12.94H100.9C100.7 11.94 99.8 11.34 98.6 11.34C97.3 11.34 96.4 12.04 96.4 12.94C96.4 13.84 97 14.24 98.4 14.54L99.6 14.84C101.9 15.34 103 16.24 103 18.04C103 20.14 101.2 21.54 98.8 21.54Z" fill="white"/>
  <path d="M109 21.34V13.34H105.4V11.74H114.4V13.34H110.9V21.34H109Z" fill="white"/>
</svg>
